#!OML:ASF G:\ViconDB\ViconDB\414\test\team2\shane.ASF
:FULLY-SPECIFIED
:DEGREES
314
root 4.82878 16.4575 15.2395 -7.84746 2.43344 -6.9839
lowerback 6.64179 5.41786 8.18032
upperback 1.99121 7.7283 -1.73985
thorax -0.301704 3.93356 -6.81253
lowerneck -11.6218 -8.65331 -11.321
upperneck 17.7175 -12.6449 14.1099
head 9.12069 -5.46559 5.13384
rclavicle 2.78795e-014 7.95139e-015
rhumerus -15.6702 37.27 -89.4352
rradius 39.8107
rwrist 23.6223
rhand -29.9238 -13.4466
rfingers 7.12502
rthumb -3.24389 -43.4017
lclavicle 2.78795e-014 7.95139e-015
lhumerus -51.26 -14.7872 91.0507
lradius 27.9577
lwrist -8.30365
lhand -37.5311 7.31709
lfingers 7.12502
lthumb -10.587 37.0304
rfemur 32.0253 -12.6884 22.6627
rtibia 0
rfoot -19.6576 -0.249965
rtoes -11.1152
lfemur -29.3644 7.67755 -6.80488
ltibia 34.3127
lfoot -29.9644 -16.8911
ltoes -9.81303
315
root 4.86705 16.4069 15.403 -7.63088 2.20506 -6.99873
lowerback 6.45746 5.54299 8.44269
upperback 1.96721 7.89725 -1.77172
thorax -0.153518 4.0268 -6.97182
lowerneck -11.5649 -8.63137 -11.4947
upperneck 17.5152 -12.5312 13.9887
head 9.02746 -5.44224 5.13519
rclavicle -8.35393e-014 2.38542e-014
rhumerus -15.3157 36.5513 -89.2222
rradius 39.3515
rwrist 24.3701
rhand -30.1707 -13.3672
rfingers 7.12502
rthumb -3.48233 -43.3185
lclavicle -8.35393e-014 2.38542e-014
lhumerus -51.236 -14.1546 90.8505
lradius 26.9574
lwrist -8.74949
lhand -37.9373 7.31404
lfingers 7.12502
lthumb -10.9788 37.007
rfemur 32.4454 -12.2598 22.5917
rtibia 7.31528e-014
rfoot -20.134 -0.610708
rtoes -12.4729
lfemur -29.7242 7.83443 -6.93258
ltibia 34.39
lfoot -30.2421 -16.1611
ltoes -10.0867
316
root 4.88861 16.3603 15.559 -7.30718 2.03189 -7.59104
lowerback 6.30513 5.54999 8.89558
upperback 1.84438 7.92695 -1.61511
thorax -0.152243 4.03786 -7.04709
lowerneck -11.6645 -8.55948 -11.5439
upperneck 17.5069 -12.371 13.8174
head 9.01069 -5.38188 5.10349
rclavicle -3.49364e-014 1.59028e-015
rhumerus -15.1949 36.0284 -89.3855
rradius 38.8764
rwrist 24.908
rhand -30.4746 -13.5735
rfingers 7.12502
rthumb -3.77575 -43.5198
lclavicle -3.49364e-014 1.59028e-015
lhumerus -50.8869 -12.6588 89.9601
lradius 25.5932
lwrist -10.0542
lhand -38.0556 7.39756
lfingers 7.12502
lthumb -11.0929 37.0844
rfemur 32.6681 -12.0165 23.2439
rtibia 1.90833e-014
rfoot -20.4538 -0.725198
rtoes -12.9234
lfemur -30.2024 7.8513 -6.33238
ltibia 34.5039
lfoot -30.1186 -15.6256
ltoes -9.48546
317
root 4.9263 16.3226 15.7188 -6.99116 1.85532 -7.60268
lowerback 6.21449 5.58022 9.04052
upperback 1.76374 7.97058 -1.6103
thorax -0.15883 4.05695 -7.11669
lowerneck -11.7699 -8.47217 -11.6628
upperneck 17.4056 -12.1337 13.5131
head 8.94779 -5.30368 5.04625
rclavicle -1.89342e-014 1.11319e-014
rhumerus -15.009 34.7712 -89.567
rradius 38.0001
rwrist 26.1983
rhand -30.7813 -13.7981
rfingers 7.12502
rthumb -4.07195 -43.7389
lclavicle -1.89342e-014 1.11319e-014
lhumerus -50.7971 -11.9987 89.8698
lradius 24.5692
lwrist -9.70652
lhand -38.3926 7.65516
lfingers 7.12502
lthumb -11.4179 37.3243
rfemur 32.9873 -11.6388 23.2002
rtibia 7.31528e-014
rfoot -20.6539 -0.977632
rtoes -14.4767
lfemur -30.4312 7.78284 -6.44227
ltibia 34.712
lfoot -30.0833 -14.6728
ltoes -9.35535
318
root 4.96756 16.2818 15.8979 -6.73951 1.50495 -7.7246
lowerback 6.0498 5.66208 9.35384
upperback 1.68656 8.08596 -1.6204
thorax -0.0806171 4.11783 -7.28471
lowerneck -11.9455 -8.4405 -11.6628
upperneck 17.468 -12.003 13.1676
head 8.95856 -5.26517 4.93938
rclavicle 6.97734e-014 -2.70347e-014
rhumerus -15.035 33.5685 -89.9754
rradius 37.2194
rwrist 27.32
rhand -30.9656 -14.088
rfingers 7.12502
rthumb -4.24991 -44.0254
lclavicle 6.97734e-014 -2.70347e-014
lhumerus -50.4352 -10.4728 88.9313
lradius 23.2394
lwrist -10.6818
lhand -38.1484 7.78531
lfingers 7.12502
lthumb -11.1824 37.4673
rfemur 33.3997 -11.1024 23.2673
rtibia 3.49861e-014
rfoot -20.7224 -1.30569
rtoes -15.8241
lfemur -30.3693 8.04433 -6.45447
ltibia 35.0336
lfoot -30.0229 -13.6609
ltoes -9.46809
319
root 5.00209 16.2464 16.0671 -6.61308 1.28762 -7.77252
lowerback 6.18396 5.63773 9.28996
upperback 1.6185 8.06553 -1.53267
thorax -0.252889 4.09407 -7.17976
lowerneck -12.3296 -8.25392 -11.6304
upperneck 17.7196 -11.629 12.684
head 9.02781 -5.11181 4.81137
rclavicle -1.08835e-014 2.70347e-014
rhumerus -15.2256 32.3644 -90.4072
rradius 36.5598
rwrist 27.8729
rhand -31.0509 -14.0686
rfingers 7.12502
rthumb -4.33229 -44.0043
lclavicle -1.08835e-014 2.70347e-014
lhumerus -50.0509 -8.62006 87.8871
lradius 21.8566
lwrist -12.1314
lhand -37.8497 7.67023
lfingers 7.12502
lthumb -10.8943 37.3676
rfemur 33.923 -10.6854 23.2005
rtibia 3.49861e-014
rfoot -20.6238 -1.20623
rtoes -15.756
lfemur -30.1946 8.58229 -6.66997
ltibia 35.4538
lfoot -29.6114 -13.1497
ltoes -9.07966
320
root 5.0438 16.2086 16.2494 -6.479 1.06452 -7.68655
lowerback 6.2726 5.71364 9.3248
upperback 1.53296 8.17991 -1.59939
thorax -0.355019 4.14352 -7.28694
lowerneck -12.8066 -8.21808 -11.4102
upperneck 18.0451 -11.4889 12.1297
head 9.15718 -5.05871 4.59104
rclavicle -7.08667e-014 2.06736e-014
rhumerus -15.6351 30.5594 -91.0402
rradius 35.9252
rwrist 28.5307
rhand -31.1 -14.2725
rfingers 7.12502
rthumb -4.37971 -44.2073
lclavicle -7.08667e-014 2.06736e-014
lhumerus -49.3921 -5.84639 85.78
lradius 20.2565
lwrist -14.3409
lhand -37.8992 7.30304
lfingers 7.12502
lthumb -10.942 36.9979
rfemur 34.4883 -10.2519 23.0182
rtibia 6.99722e-014
rfoot -20.3697 -1.54725
rtoes -17.8809
lfemur -29.8349 8.79289 -6.96198
ltibia 36.016
lfoot -28.9716 -12.5691
ltoes -8.42897
321
root 5.08629 16.1842 16.4361 -6.30107 0.953208 -7.6239
lowerback 6.25242 5.70653 9.2265
upperback 1.48282 8.16373 -1.61794
thorax -0.410871 4.13014 -7.25389
lowerneck -13.059 -8.17707 -11.49
upperneck 17.9997 -11.3677 12.0557
head 9.17242 -5.00574 4.58784
rclavicle -2.03257e-014 -1.11319e-014
rhumerus -16.2072 29.0975 -91.6217
rradius 35.6096
rwrist 29.3564
rhand -31.0381 -14.663
rfingers 7.12502
rthumb -4.31995 -44.5989
lclavicle -2.03257e-014 -1.11319e-014
lhumerus -49.4874 -5.70121 85.8374
lradius 19.583
lwrist -14.311
lhand -36.9369 8.02966
lfingers 7.12502
lthumb -10.0138 37.7714
rfemur 34.9703 -9.91064 22.817
rtibia 8.26944e-014
rfoot -19.9447 -1.7143
rtoes -18.4553
lfemur -29.4578 9.14513 -7.32582
ltibia 36.6421
lfoot -28.4126 -12.2283
ltoes -8.48422
322
root 5.12767 16.1608 16.6257 -6.12108 0.80355 -7.6153
lowerback 6.23824 5.69474 9.11491
upperback 1.39761 8.14228 -1.64297
thorax -0.508721 4.11062 -7.22372
lowerneck -13.0623 -8.06586 -11.6487
upperneck 17.6377 -11.2014 12.3363
head 9.05535 -4.91822 4.73247
rclavicle -5.01931e-015 -1.59028e-015
rhumerus -16.9109 27.5897 -92.4275
rradius 35.2809
rwrist 29.4545
rhand -31.0396 -14.8738
rfingers 7.12502
rthumb -4.32134 -44.8097
lclavicle -5.01931e-015 -1.59028e-015
lhumerus -49.2746 -4.38475 84.9192
lradius 18.4831
lwrist -15.4034
lhand -36.4489 7.99033
lfingers 7.12502
lthumb -9.54293 37.7542
rfemur 35.4769 -9.55704 22.7181
rtibia 6.36111e-014
rfoot -19.2596 -1.9723
rtoes -19.9679
lfemur -29.0574 9.50479 -7.61115
ltibia 37.3133
lfoot -27.8663 -12.4019
ltoes -8.96822
323
root 5.17331 16.1586 16.8263 -5.99026 0.801593 -7.50045
lowerback 6.18936 5.6743 8.94847
upperback 1.34313 8.10118 -1.69042
thorax -0.562977 4.08503 -7.18005
lowerneck -13.4838 -8.09243 -11.5172
upperneck 17.8312 -11.1904 12.0857
head 9.17351 -4.90875 4.61461
rclavicle -2.66371e-014 1.59028e-014
rhumerus -17.8144 26.217 -93.0627
rradius 35.205
rwrist 29.6845
rhand -30.9546 -14.9227
rfingers 7.12502
rthumb -4.23927 -44.8602
lclavicle -2.66371e-014 1.59028e-014
lhumerus -49.2635 -3.68146 84.4397
lradius 17.5537
lwrist -16.4657
lhand -36.5013 8.30979
lfingers 7.12502
lthumb -9.59349 38.0714
rfemur 36.0085 -9.30837 22.4256
rtibia 6.67916e-014
rfoot -18.3342 -2.01608
rtoes -20.1331
lfemur -28.6247 9.49267 -7.99991
ltibia 37.907
lfoot -26.9365 -13.3235
ltoes -8.52814
324
root 5.21848 16.1752 17.0304 -5.76247 0.872682 -7.54305
lowerback 6.07354 5.60437 8.81316
upperback 1.24636 7.9925 -1.66388
thorax -0.643363 4.02194 -7.07021
lowerneck -13.7784 -8.06626 -11.6808
upperneck 17.6741 -11.131 12.3499
head 9.19366 -4.85825 4.7329
rclavicle 1.36167e-014 -1.90833e-014
rhumerus -18.8047 25.1063 -93.6688
rradius 35.1261
rwrist 29.8175
rhand -30.6678 -14.7882
rfingers 7.12502
rthumb -3.96236 -44.7311
lclavicle 1.36167e-014 -1.90833e-014
lhumerus -49.2842 -3.0915 84.0957
lradius 16.918
lwrist -16.7135
lhand -35.9372 8.36649
lfingers 7.12502
lthumb -9.04916 38.1524
rfemur 36.4083 -9.15511 22.321
rtibia 2.8625e-014
rfoot -17.1444 -2.08921
rtoes -21.7617
lfemur -28.6977 9.12524 -8.10075
ltibia 38.4055
lfoot -25.0117 -14.4476
ltoes -7.60309
